<svg xmlns="http://www.w3.org/2000/svg" width="45.541" height="37.727" viewBox="0 0 45.541 37.727">
  <g id="Group_182" data-name="Group 182" transform="translate(-933.973 -4177.233)">
    <ellipse id="Ellipse_3" data-name="Ellipse 3" cx="8.278" cy="8.278" rx="8.278" ry="8.278" transform="translate(937.566 4194.077)" fill="#d1efff"/>
    <g id="Group_2" data-name="Group 2" transform="translate(933.973 4177.233)">
      <path id="Path_1" data-name="Path 1" d="M-2723.28,648.837a2.159,2.159,0,0,0-2.232-1.716c-.25.018-.315-.059-.4-.276a2.4,2.4,0,0,0-1.976-1.594,2.389,2.389,0,0,0-2.395,1.011.486.486,0,0,1-.478.228,1.619,1.619,0,0,0-1.178.411.891.891,0,0,1-.589.223,2.168,2.168,0,0,0-2.014,2.234,2.212,2.212,0,0,0,2.147,2.155q1.739,0,3.478,0c1.135,0,2.271-.009,3.4.005a2.315,2.315,0,0,0,.989-.21A2.2,2.2,0,0,0-2723.28,648.837Zm-1.268.783a.967.967,0,0,1-1.01.623q-1.682,0-3.367,0c-1.134,0-2.269,0-3.4,0a.959.959,0,0,1-.94-.722.961.961,0,0,1,.524-1.064.867.867,0,0,1,.57-.063.76.76,0,0,0,.878-.354.587.587,0,0,1,.352-.28.585.585,0,0,1,.446.052c.558.262.9.015,1.068-.488a1.158,1.158,0,0,1,1.144-.814,1.19,1.19,0,0,1,1.13.677,1.221,1.221,0,0,1,.127.743.635.635,0,0,0,.309.687.668.668,0,0,0,.721-.052.947.947,0,0,1,1.183.025.932.932,0,0,1,.266,1.032Z" transform="translate(2736.352 -645.214)"/>
      <path id="Path_2" data-name="Path 2" d="M-2389.093,696a2.284,2.284,0,0,0-2.359-1.862.337.337,0,0,1-.259-.047.335.335,0,0,1-.145-.219,2.606,2.606,0,0,0-2-1.668,2.606,2.606,0,0,0-2.445.888c-.228.269-.407.463-.8.412a1.048,1.048,0,0,0-.819.258,2.265,2.265,0,0,1-1.209.449,2.271,2.271,0,0,0-1.721,2.524,2.341,2.341,0,0,0,2.2,2c1.222-.028,2.444-.007,3.666-.007s2.445,0,3.668,0a1.938,1.938,0,0,0,.774-.152A2.307,2.307,0,0,0-2389.093,696Zm-1.341.76a1.019,1.019,0,0,1-1.053.654h-6.985a.989.989,0,0,1-.782-.278.99.99,0,0,1-.294-.777.959.959,0,0,1,1.216-.866.75.75,0,0,0,.82-.342.691.691,0,0,1,.927-.266c.556.21.8.088,1.03-.476a1.326,1.326,0,0,1,1.507-.88,1.3,1.3,0,0,1,1.024,1.44.735.735,0,0,0,.307.732.688.688,0,0,0,.785-.05.958.958,0,0,1,1.229.033.978.978,0,0,1,.27,1.079Z" transform="translate(2433.522 -687.814)"/>
      <g id="Group_1" data-name="Group 1" transform="translate(0 8.69)">
        <path id="Path_3" data-name="Path 3" d="M-2710.164,748.676c-1.318-.472-2.626-.973-3.935-1.473a12.662,12.662,0,0,0-6.827-.667c-1.651.288-3.306.553-4.956.848a.813.813,0,0,1-.732-.2q-4.764-3.88-9.538-7.746a1.149,1.149,0,0,0-1.031-.262c-.828.17-1.663.3-2.492.463-.9.173-1.1.666-.584,1.436q2.472,3.7,4.942,7.41c.09.135.234.251.229.449-3.2.541-6.391,1.075-9.581,1.63a.608.608,0,0,1-.7-.281c-1.393-1.936-2.808-3.855-4.206-5.787a.953.953,0,0,0-1.063-.433c-.857.17-1.723.292-2.584.446a.768.768,0,0,0-.642.382.768.768,0,0,0-.014.747q1.306,3.77,2.617,7.539a.364.364,0,0,1-.122.472,2.208,2.208,0,0,0-.722,2.468,2.224,2.224,0,0,0,2.274,1.49c2.8-.074,5.6-.173,8.408-.26,1.307-.041,2.613-.079,3.961-.119-.083.19-.141.335-.205.475l-4.193,9.03c-.318.688-.049,1.155.7,1.222s1.488.076,2.218.195a1.63,1.63,0,0,0,1.709-.733c2.672-3.382,5.388-6.732,8.076-10.1a1.029,1.029,0,0,1,.82-.435c.686-.035,1.371-.11,2.056-.152a47.517,47.517,0,0,0,9.467-1.349,22.108,22.108,0,0,0,7.109-3,2.576,2.576,0,0,0,1.28-1.752l-.114-.678A2.549,2.549,0,0,0-2710.164,748.676Zm-28.231-7.466c-.158-.236-.114-.321.152-.342a.327.327,0,0,0,.085-.016,1.874,1.874,0,0,1,2.031.481c2.466,2.072,4.991,4.075,7.494,6.1.11.089.216.184.395.336-1.725.292-3.361.566-4.995.849-.183.032-.252-.057-.337-.183q-2.407-3.617-4.823-7.23Zm4.515,19.635c-1.435,1.786-2.88,3.565-4.294,5.367a.892.892,0,0,1-.962.429,9.949,9.949,0,0,0-1.009-.1c.3-.657.588-1.265.871-1.873q2.186-4.709,4.369-9.419c.081-.173.122-.364.393-.383,1.894-.132,3.787-.281,5.772-.432-1.752,2.188-3.444,4.3-5.138,6.407Zm23.646-9.9a19.023,19.023,0,0,1-6,2.755,45.407,45.407,0,0,1-10.038,1.548c-.2.011-.4.041-.6.055s-.4.02-.681.033c.345-.432.637-.8.933-1.165a.79.79,0,0,0,.189-.94.8.8,0,0,0-.875-.388c-2.625.207-5.252.4-7.879.6a.823.823,0,0,0-.74.5c-.222.48-.463.953-.657,1.444a.51.51,0,0,1-.545.359c-1.959.051-3.918.114-5.877.175l-6.65.2a1.14,1.14,0,0,1-.818-.168.721.721,0,0,1-.277-.537.72.72,0,0,1,.229-.56,3.3,3.3,0,0,1,.4-.318c.607-.449.662-.658.407-1.387-.82-2.349-1.63-4.7-2.45-7.051-.08-.228-.015-.293.207-.321a3.585,3.585,0,0,1,1.263-.163c.374.106.54.623.792.964,1.243,1.689,2.488,3.379,3.713,5.082a1.028,1.028,0,0,0,1.138.456q12.156-2.072,24.318-4.125a11.261,11.261,0,0,1,5.461.365,1.324,1.324,0,0,0,.163.051.563.563,0,0,1,.4.41c.06.171-.187.2-.29.306a.989.989,0,0,1-.577.251c-.693.109-1.382.247-2.077.342-.291.038-.352.152-.277.412.1.353-.013.867.258,1.035.231.143.68-.061,1.031-.114a5.238,5.238,0,0,1,.678-.109,4.474,4.474,0,0,0,2.738-1.272.716.716,0,0,0,.224-.253c.08-.2.187-.154.336-.1.787.3,1.577.6,2.367.891.167.063.332.138.346.336s-.138.29-.282.394Z" transform="translate(2753.969 -739.146)"/>
        <path id="Path_4" data-name="Path 4" d="M-2634.756,882.638c-.118-.7-.118-.7.583-.821.752-.127.752-.127.876.608s.123.728-.6.85S-2634.626,883.4-2634.756,882.638Z" transform="translate(2645.844 -868.566)" fill="#010101"/>
        <path id="Path_5" data-name="Path 5" d="M-2601.865,877.045c.127.75.127.75-.616.874-.711.12-.711.12-.829-.575-.13-.767-.13-.767.635-.9C-2601.983,876.332-2601.983,876.332-2601.865,877.045Z" transform="translate(2617.311 -863.7)" fill="#010101"/>
        <path id="Path_6" data-name="Path 6" d="M-2570.855,872.576c-.755.128-.755.128-.88-.613-.123-.722-.123-.722.608-.846s.734-.124.856.595l.006.042C-2570.149,872.457-2570.149,872.457-2570.855,872.576Z" transform="translate(2588.654 -858.857)" fill="#020202"/>
        <path id="Path_7" data-name="Path 7" d="M-2538.759,866.45c.119.7.119.7-.585.822-.746.126-.746.126-.874-.619-.123-.718-.123-.718.6-.841S-2538.889,865.689-2538.759,866.45Z" transform="translate(2560.048 -854.044)" fill="#010101"/>
        <path id="Path_8" data-name="Path 8" d="M-2508.206,860.462c.718-.122.718-.122.842.612s.123.73-.6.853c-.74.125-.74.125-.867-.629C-2508.951,860.588-2508.951,860.588-2508.206,860.462Z" transform="translate(2531.563 -849.189)" fill="#020202"/>
        <path id="Path_9" data-name="Path 9" d="M-2475.666,855.769c.117.7.117.7-.593.817-.744.126-.744.126-.871-.622-.121-.714-.121-.714.611-.838S-2475.8,855-2475.666,855.769Z" transform="translate(2502.793 -844.346)" fill="#010101"/>
        <path id="Path_10" data-name="Path 10" d="M-2444.258,850.453c.119.71.119.71-.579.828-.755.128-.755.128-.878-.608s-.124-.726.6-.848C-2444.383,849.7-2444.383,849.7-2444.258,850.453Z" transform="translate(2474.285 -839.534)" fill="#010101"/>
      </g>
    </g>
  </g>
</svg>
