<svg xmlns="http://www.w3.org/2000/svg" width="36" height="40.851" viewBox="0 0 36 40.851">
  <g id="Group_133" data-name="Group 133" transform="translate(-6490 179)">
    <g id="Group_132" data-name="Group 132" transform="translate(6490 -179)">
      <path id="Path_135" data-name="Path 135" d="M185.678,237.02c.715.169,1.445.3,2.144.516a10.293,10.293,0,0,1,6.483,5.715,1.2,1.2,0,0,1-.11.846c-.033.077-.458.08-.623-.019a1.346,1.346,0,0,1-.383-.567,9.3,9.3,0,0,0-5.564-4.847,12.982,12.982,0,0,0-5.739-.381,9,9,0,0,0-7.869,6.33,17.094,17.094,0,0,0-.538,4.074c-.017.182.279.5.5.58a10.888,10.888,0,0,0,6.026.322,23,23,0,0,0,8.746-3.964c1.006-.7,1.108-.693,1.641.37a5.212,5.212,0,0,0,3.7,2.726c0-.723,0-1.435,0-2.148,0-.354-.01-.708.471-.753.507-.047.591.313.641.691a3.35,3.35,0,0,1,.047.635,1.556,1.556,0,0,0,.608,1.538,1.757,1.757,0,0,1,.5,1.176,27.757,27.757,0,0,1,.017,2.806,1.856,1.856,0,0,1-.754,1.478,1.043,1.043,0,0,0-.34.666c-.049.57-.008,1.148-.02,1.722A3.477,3.477,0,0,1,192.524,260c-1.291.338-2.584.668-3.875,1.007-.279.073-.629.1-.523.545.083.349.288.451.664.53,1.073.225,2.127.549,3.179.866,1.48.447,2.962.895,4.425,1.394a7.731,7.731,0,0,1,5.512,6.6,3.637,3.637,0,0,0,.114.421v5.489L201,277.871H167.039l-1.021-1.021v-4.724c.267-.12.6-.4.783-.318a.994.994,0,0,1,.369.767c.04,1.147.047,2.3,0,3.446-.021.577.18.741.732.706a19.661,19.661,0,0,1,2.105,0c.451.02.591-.144.585-.586-.021-1.489-.011-2.978-.005-4.468,0-.432-.113-1.018.544-1.009s.6.592.6,1.062q0,2.106,0,4.213v.735H196.3v-.939q0-1.979,0-3.957c0-.149-.055-.336.015-.439.169-.252.371-.622.606-.661.4-.066.533.3.531.689-.008,1.553.023,3.107-.015,4.659-.014.579.18.738.73.7.721-.044,1.447.009,2.169-.026.174-.009.488-.2.487-.309a42.3,42.3,0,0,0-.212-5.974,6.271,6.271,0,0,0-4.625-5.029c-1.084-.363-2.186-.67-3.272-1.028a.712.712,0,0,0-.875.261c-.809.959-1.637,1.9-2.471,2.839a2.58,2.58,0,0,1-3.147.848,5.111,5.111,0,0,0-4.5.054,2.366,2.366,0,0,1-2.96-.794c-.852-1.005-1.72-2-2.612-2.97a.838.838,0,0,0-.68-.247c-1.263.357-2.521.738-3.76,1.171a6.655,6.655,0,0,0-4.022,3.842c-.034.078-.045.192-.1.228-.24.147-.494.27-.743.4-.1-.271-.355-.612-.271-.8a12.316,12.316,0,0,1,1.189-2.163,8.684,8.684,0,0,1,4.94-3.052c1.991-.588,3.968-1.224,5.953-1.831a1.656,1.656,0,0,1,.623-.085.5.5,0,0,0,.615-.547c0-.154-.261-.393-.445-.443-1.412-.379-2.832-.729-4.253-1.073a3.44,3.44,0,0,1-2.819-3.316c-.032-.466-.024-.935-.025-1.4,0-.61.086-1.231-.438-1.721a.8.8,0,0,1-.179-.531c-.017-1.166-.016-2.331-.005-3.5a.732.732,0,0,1,.149-.476,2.582,2.582,0,0,0,.511-1.963,10.514,10.514,0,0,1,9.173-9.951,2.567,2.567,0,0,0,.417-.124Zm3.71,9.589c-4.137,2.731-8.422,4.755-13.47,4.314-.774,5.726,4.506,9.91,8.768,9.108a.892.892,0,0,0-.122-.144,1.729,1.729,0,0,1,.909-3.111c.546-.067,1.09-.165,1.63-.275a1.751,1.751,0,0,1,1.734.545c.107.112.276.26.4.246.669-.075,1.358-.123,1.681-.893.2-.467.481-.9.692-1.358.812-1.775.552-3.667.574-5.527a.408.408,0,0,0-.172-.307A6.626,6.626,0,0,1,189.388,246.609Zm-5.371,19.6,3.41-3.241-.608-2.063a9.843,9.843,0,0,1-5.576.016c-.217.62-.426,1.164-.589,1.721a.559.559,0,0,0,.118.467C181.818,264.129,182.883,265.131,184.017,266.209Zm-5.538-6.549a1.059,1.059,0,0,0-.092-.22,1.84,1.84,0,0,0-.191-.167,9.41,9.41,0,0,1-2.929-4.018c-.36-.918-.376-.943-1.371-.816a.644.644,0,0,0-.423.446,10.436,10.436,0,0,0-.005,1.72,2.163,2.163,0,0,0,1.367,2.059C176,259.069,177.218,259.323,178.479,259.66ZM182.8,266.8c-.021-.1-.015-.156-.038-.179q-1.7-1.636-3.406-3.263a.439.439,0,0,0-.331-.131c-.637.185-1.265.4-1.988.632,1.009,1.141,1.907,2.217,2.884,3.217a1.424,1.424,0,0,0,1.1.29A11.607,11.607,0,0,0,182.8,266.8Zm2.31-.049c.536.182.942.293,1.325.456a1.68,1.68,0,0,0,2.1-.545c.655-.754,1.319-1.5,1.977-2.254.143-.164.276-.336.466-.57-.689-.216-1.27-.41-1.859-.575a.487.487,0,0,0-.4.067C187.543,264.435,186.377,265.548,185.106,266.755Zm10.129-16.712-1.9-.194v3.458a5.476,5.476,0,0,0,1.289-.027.908.908,0,0,0,.584-.6C195.274,251.781,195.235,250.872,195.235,250.043ZM174.689,253.3c0-.809.016-1.547-.014-2.283a.562.562,0,0,0-.295-.41c-.486-.184-.992-.312-1.573-.486,0,.932-.033,1.8.026,2.655.013.186.331.461.545.5A7.189,7.189,0,0,0,174.689,253.3Zm15.12,6.24c.974-.274,1.983-.5,2.946-.847a2.016,2.016,0,0,0,1.269-2.308c-1.071,1.253-1.072,1.251-2.788,1.718a.7.7,0,0,0-.325.18C190.543,258.688,190.189,259.1,189.809,259.541Zm-4.3-.415c.834-.157,1.53-.249,2.2-.442a.721.721,0,0,0,.356-.616.825.825,0,0,0-.623-.462,10.038,10.038,0,0,0-1.99.37.733.733,0,0,0-.39.6C185.088,258.8,185.376,258.98,185.507,259.126Zm6.759-2.684a1.637,1.637,0,0,0,.781-1.892Z" transform="translate(-166.018 -237.02)" fill="#413f3f"/>
      <path id="Path_136" data-name="Path 136" d="M166.018,548.981,167.039,550h-1.021Z" transform="translate(-166.018 -509.151)" fill="#413f3f"/>
      <path id="Path_137" data-name="Path 137" d="M439.983,550,441,548.981V550Z" transform="translate(-405.004 -509.151)" fill="#413f3f"/>
      <path id="Path_138" data-name="Path 138" d="M226,497.931c.721,0,1.443-.01,2.164,0a1.016,1.016,0,0,1,1.091,1.06c.021.636.022,1.274,0,1.91a.966.966,0,0,1-1,1.018q-2.291.034-4.583,0a.893.893,0,0,1-.938-.922c-.037-.7-.032-1.4,0-2.1a.96.96,0,0,1,1.037-.963C224.513,497.921,225.256,497.932,226,497.931Zm2.069,1.186H223.91v1.727h2.7C228.253,500.844,228.253,500.844,228.068,499.118Z" transform="translate(-215.472 -464.616)" fill="#413f3f"/>
    </g>
  </g>
</svg>
